<svg width="30" height="31" viewBox="0 0 30 31" fill="none" xmlns="http://www.w3.org/2000/svg">
<path d="M23.7913 24.25C24.5649 24.25 25.3068 24.5573 25.8537 25.1042C26.4007 25.6512 26.708 26.3931 26.708 27.1666C26.708 27.9402 26.4007 28.682 25.8537 29.229C25.3068 29.776 24.5649 30.0833 23.7913 30.0833C23.0178 30.0833 22.2759 29.776 21.7289 29.229C21.182 28.682 20.8747 27.9402 20.8747 27.1666C20.8747 25.5479 22.1726 24.25 23.7913 24.25ZM0.458008 0.916626H5.22676L6.59759 3.83329H28.1663C28.5531 3.83329 28.924 3.98694 29.1975 4.26043C29.471 4.53392 29.6247 4.90485 29.6247 5.29163C29.6247 5.53954 29.5518 5.78746 29.4497 6.02079L24.2288 15.4562C23.733 16.3458 22.7705 16.9583 21.6768 16.9583H10.8122L9.49967 19.3354L9.45592 19.5104C9.45592 19.6071 9.49434 19.6998 9.56271 19.7682C9.63108 19.8365 9.72381 19.875 9.82051 19.875H26.708V22.7916H9.20801C8.43446 22.7916 7.69259 22.4843 7.14561 21.9374C6.59863 21.3904 6.29134 20.6485 6.29134 19.875C6.29134 19.3645 6.42259 18.8833 6.64134 18.475L8.62467 14.902L3.37467 3.83329H0.458008V0.916626ZM9.20801 24.25C9.98156 24.25 10.7234 24.5573 11.2704 25.1042C11.8174 25.6512 12.1247 26.3931 12.1247 27.1666C12.1247 27.9402 11.8174 28.682 11.2704 29.229C10.7234 29.776 9.98156 30.0833 9.20801 30.0833C8.43446 30.0833 7.69259 29.776 7.14561 29.229C6.59863 28.682 6.29134 27.9402 6.29134 27.1666C6.29134 25.5479 7.58926 24.25 9.20801 24.25ZM22.333 14.0416L26.3872 6.74996H7.95384L11.3955 14.0416H22.333Z" fill="#505050"/>
</svg>
