<svg width="27" height="28" viewBox="0 0 27 28" fill="none" xmlns="http://www.w3.org/2000/svg">
<path d="M21.6668 22C20.1868 22 19.0002 23.1866 19.0002 24.6666C19.0002 25.3739 19.2811 26.0521 19.7812 26.5522C20.2813 27.0523 20.9596 27.3333 21.6668 27.3333C22.3741 27.3333 23.0524 27.0523 23.5524 26.5522C24.0525 26.0521 24.3335 25.3739 24.3335 24.6666C24.3335 23.9594 24.0525 23.2811 23.5524 22.781C23.0524 22.2809 22.3741 22 21.6668 22ZM0.333496 0.666626V3.33329H3.00016L7.80016 13.4533L5.98683 16.72C5.78683 17.0933 5.66683 17.5333 5.66683 18C5.66683 18.7072 5.94778 19.3855 6.44788 19.8856C6.94797 20.3857 7.62625 20.6666 8.3335 20.6666H24.3335V18H8.8935C8.80509 18 8.72031 17.9648 8.65779 17.9023C8.59528 17.8398 8.56016 17.755 8.56016 17.6666C8.56016 17.6 8.5735 17.5466 8.60016 17.5066L9.80016 15.3333H19.7335C20.7335 15.3333 21.6135 14.7733 22.0668 13.96L26.8402 5.33329C26.9335 5.11996 27.0002 4.89329 27.0002 4.66663C27.0002 4.313 26.8597 3.97387 26.6096 3.72382C26.3596 3.47377 26.0205 3.33329 25.6668 3.33329H5.94683L4.6935 0.666626H0.333496ZM8.3335 22C6.8535 22 5.66683 23.1866 5.66683 24.6666C5.66683 25.3739 5.94778 26.0521 6.44788 26.5522C6.94797 27.0523 7.62625 27.3333 8.3335 27.3333C9.04074 27.3333 9.71902 27.0523 10.2191 26.5522C10.7192 26.0521 11.0002 25.3739 11.0002 24.6666C11.0002 23.9594 10.7192 23.2811 10.2191 22.781C9.71902 22.2809 9.04074 22 8.3335 22Z" fill="#353535"/>
</svg>
