<svg width="40" height="35" viewBox="0 0 40 35" fill="none" xmlns="http://www.w3.org/2000/svg">
<path d="M12.2049 14.566C11.7609 14.566 11.2629 14.476 10.7109 14.296C10.1589 14.116 9.58887 13.9 9.00087 13.648C8.42487 13.396 7.86087 13.156 7.30887 12.928C7.00887 13.252 6.68487 13.504 6.33687 13.684C5.98887 13.864 5.61687 13.954 5.22087 13.954C4.80087 13.954 4.44087 13.858 4.14087 13.666C3.82887 13.486 3.59487 13.264 3.43887 13C3.27087 12.736 3.18687 12.496 3.18687 12.28C3.18687 12.04 3.29487 11.83 3.51087 11.65C3.72687 11.47 4.11087 11.38 4.66287 11.38C4.98687 11.38 5.34087 11.416 5.72487 11.488C6.12087 11.548 6.52287 11.632 6.93087 11.74C7.20687 11.26 7.45887 10.696 7.68687 10.048C7.92687 9.4 8.16087 8.722 8.38887 8.014C8.61687 7.294 8.84487 6.592 9.07287 5.908C8.47287 5.704 8.01087 5.422 7.68687 5.062C7.36287 4.69 7.20087 4.318 7.20087 3.946C7.20087 3.706 7.26087 3.472 7.38087 3.244C7.50087 3.004 7.67487 2.806 7.90287 2.65C8.13087 2.482 8.40087 2.398 8.71287 2.398C8.55687 2.59 8.45487 2.806 8.40687 3.046C8.37087 3.286 8.35287 3.478 8.35287 3.622C8.35287 4.018 8.44287 4.354 8.62287 4.63C8.80287 4.906 9.02487 5.122 9.28887 5.278C9.51687 4.594 9.75687 3.94 10.0089 3.316C10.2729 2.68 10.5609 2.122 10.8729 1.642C11.1969 1.15 11.5509 0.759999 11.9349 0.471999C12.3309 0.183999 12.7749 0.0399995 13.2669 0.0399995C13.5429 0.0399995 13.8309 0.0999994 14.1309 0.219999C14.4429 0.327999 14.7069 0.519999 14.9229 0.795999C15.1509 1.072 15.2649 1.468 15.2649 1.984C15.2649 2.392 15.1749 2.83 14.9949 3.298C14.8269 3.766 14.5569 4.216 14.1849 4.648C13.8129 5.068 13.3329 5.422 12.7449 5.71C12.1689 5.986 11.4669 6.136 10.6389 6.16H10.4769C10.1409 7.204 9.76887 8.254 9.36087 9.31C8.95287 10.366 8.50287 11.272 8.01087 12.028C8.47887 12.16 8.99487 12.31 9.55887 12.478C10.1349 12.646 10.7049 12.79 11.2689 12.91C11.8449 13.018 12.3489 13.072 12.7809 13.072C13.0689 13.072 13.3329 13.042 13.5729 12.982C13.8249 12.91 14.0889 12.808 14.3649 12.676C14.1249 13.348 13.8249 13.828 13.4649 14.116C13.1169 14.416 12.6969 14.566 12.2049 14.566ZM10.6749 5.566C11.2029 5.53 11.6709 5.362 12.0789 5.062C12.4869 4.762 12.8349 4.402 13.1229 3.982C13.4109 3.562 13.6269 3.136 13.7709 2.704C13.9269 2.26 14.0049 1.876 14.0049 1.552C14.0049 1.24 13.9449 1.03 13.8249 0.922C13.7049 0.801999 13.5669 0.741999 13.4109 0.741999C13.0629 0.741999 12.7329 0.963999 12.4209 1.408C12.1089 1.852 11.8089 2.44 11.5209 3.172C11.2449 3.892 10.9629 4.69 10.6749 5.566ZM5.04087 13.288C5.35287 13.288 5.60487 13.216 5.79687 13.072C5.98887 12.94 6.18087 12.772 6.37287 12.568C6.00087 12.436 5.65287 12.328 5.32887 12.244C5.00487 12.148 4.72287 12.1 4.48287 12.1C4.25487 12.1 4.09287 12.142 3.99687 12.226C3.88887 12.31 3.83487 12.412 3.83487 12.532C3.83487 12.724 3.95487 12.898 4.19487 13.054C4.43487 13.21 4.71687 13.288 5.04087 13.288ZM16.5187 13.576C15.9667 13.576 15.5587 13.408 15.2947 13.072C15.0307 12.748 14.8987 12.346 14.8987 11.866C14.8987 11.242 15.0067 10.66 15.2227 10.12C15.4507 9.58 15.7327 9.094 16.0687 8.662C16.4167 8.218 16.7887 7.84 17.1847 7.528C17.5807 7.216 17.9527 6.976 18.3007 6.808C18.6607 6.64 18.9547 6.556 19.1827 6.556C19.2427 6.556 19.3267 6.568 19.4347 6.592C19.5427 6.616 19.6207 6.676 19.6687 6.772C19.7047 6.748 19.7407 6.73 19.7767 6.718C19.8247 6.706 19.8727 6.7 19.9207 6.7C20.2567 6.7 20.4727 6.796 20.5687 6.988C20.6767 7.18 20.7307 7.39 20.7307 7.618C20.7307 7.822 20.6707 8.056 20.5507 8.32C20.4427 8.584 20.3287 8.878 20.2087 9.202C20.1007 9.514 20.0467 9.874 20.0467 10.282C20.0467 10.498 20.1067 10.666 20.2267 10.786C20.3587 10.894 20.5087 10.948 20.6767 10.948C21.1447 10.948 21.5287 10.846 21.8287 10.642C22.1287 10.426 22.3747 10.144 22.5667 9.796C22.7587 9.448 22.9207 9.07 23.0527 8.662C23.1847 8.242 23.3107 7.828 23.4307 7.42C23.3227 7.288 23.2687 7.138 23.2687 6.97C23.2687 6.706 23.3227 6.478 23.4307 6.286C23.5387 6.082 23.6587 5.926 23.7907 5.818C23.9347 5.698 24.0487 5.638 24.1327 5.638C24.3247 5.638 24.4387 5.71 24.4747 5.854C24.5107 5.998 24.5287 6.112 24.5287 6.196C24.5287 6.256 24.4927 6.364 24.4207 6.52C24.3607 6.676 24.3307 6.784 24.3307 6.844C24.3307 6.964 24.4267 7.09 24.6187 7.222C24.8227 7.342 25.0507 7.486 25.3027 7.654C25.5547 7.822 25.7767 8.038 25.9687 8.302C26.1727 8.554 26.2747 8.872 26.2747 9.256C26.2747 9.616 26.2027 9.976 26.0587 10.336C25.9147 10.696 25.7707 11.032 25.6267 11.344C25.4827 11.656 25.4107 11.926 25.4107 12.154C25.4107 12.334 25.4527 12.454 25.5367 12.514C25.6327 12.562 25.7407 12.586 25.8607 12.586C26.1367 12.586 26.4247 12.502 26.7247 12.334C27.0367 12.154 27.3367 11.926 27.6247 11.65C27.9127 11.374 28.1707 11.086 28.3987 10.786C28.6267 10.474 28.7947 10.192 28.9027 9.94L29.2627 10.192C29.0227 10.708 28.7047 11.218 28.3087 11.722C27.9127 12.226 27.4627 12.646 26.9587 12.982C26.4667 13.318 25.9507 13.486 25.4107 13.486C24.9667 13.486 24.6007 13.366 24.3127 13.126C24.0367 12.886 23.8987 12.58 23.8987 12.208C23.8987 11.86 23.9767 11.494 24.1327 11.11C24.2887 10.726 24.4447 10.354 24.6007 9.994C24.7567 9.634 24.8347 9.31 24.8347 9.022C24.8347 8.71 24.7327 8.458 24.5287 8.266C24.3247 8.062 24.1087 7.9 23.8807 7.78C23.7367 8.212 23.5747 8.656 23.3947 9.112C23.2267 9.568 23.0167 9.988 22.7647 10.372C22.5127 10.744 22.1947 11.05 21.8107 11.29C21.4267 11.518 20.9467 11.632 20.3707 11.632C20.2147 11.632 20.0347 11.608 19.8307 11.56C19.6387 11.512 19.4767 11.464 19.3447 11.416C19.0207 12.052 18.5947 12.574 18.0667 12.982C17.5507 13.378 17.0347 13.576 16.5187 13.576ZM16.8607 12.676C17.0167 12.676 17.2087 12.598 17.4367 12.442C17.6767 12.286 17.9107 12.082 18.1387 11.83C18.3787 11.566 18.5647 11.29 18.6967 11.002C18.4447 10.666 18.3187 10.162 18.3187 9.49C18.3187 9.346 18.3367 9.154 18.3727 8.914C18.4207 8.674 18.4807 8.428 18.5527 8.176C18.6367 7.912 18.7327 7.69 18.8407 7.51C18.4327 7.894 18.0307 8.344 17.6347 8.86C17.2507 9.364 16.9327 9.874 16.6807 10.39C16.4287 10.906 16.3027 11.38 16.3027 11.812C16.3027 12.136 16.3507 12.364 16.4467 12.496C16.5547 12.616 16.6927 12.676 16.8607 12.676ZM30.6144 13.792C29.8464 13.792 29.2524 13.582 28.8324 13.162C28.4244 12.754 28.2204 12.238 28.2204 11.614C28.2204 11.086 28.3524 10.528 28.6164 9.94C28.8924 9.34 29.2584 8.782 29.7144 8.266C30.1704 7.738 30.6744 7.312 31.2264 6.988C31.7784 6.664 32.3304 6.502 32.8824 6.502C33.1944 6.502 33.4884 6.586 33.7644 6.754C34.0524 6.91 34.1964 7.228 34.1964 7.708C34.1964 8.164 34.0644 8.59 33.8004 8.986C33.5364 9.382 33.1824 9.736 32.7384 10.048C32.2944 10.36 31.8024 10.618 31.2624 10.822C30.7344 11.014 30.2004 11.14 29.6604 11.2C29.6484 11.248 29.6364 11.302 29.6244 11.362C29.6244 11.41 29.6244 11.494 29.6244 11.614C29.6244 11.674 29.6304 11.782 29.6424 11.938C29.6664 12.082 29.7204 12.238 29.8044 12.406C29.8884 12.574 30.0264 12.718 30.2184 12.838C30.4104 12.958 30.6744 13.018 31.0104 13.018C31.5144 13.018 32.0184 12.88 32.5224 12.604C33.0384 12.316 33.5184 11.938 33.9624 11.47C34.4184 11.002 34.7964 10.48 35.0964 9.904L35.4564 10.192C35.1324 10.912 34.7124 11.542 34.1964 12.082C33.6924 12.622 33.1284 13.042 32.5044 13.342C31.8924 13.642 31.2624 13.792 30.6144 13.792ZM29.8584 10.534C30.1704 10.498 30.5184 10.39 30.9024 10.21C31.2864 10.03 31.6524 9.802 32.0004 9.526C32.3604 9.25 32.6544 8.95 32.8824 8.626C33.1104 8.29 33.2244 7.954 33.2244 7.618C33.2244 7.486 33.2004 7.396 33.1524 7.348C33.1044 7.3 33.0264 7.276 32.9184 7.276C32.6424 7.276 32.3544 7.378 32.0544 7.582C31.7544 7.774 31.4604 8.032 31.1724 8.356C30.8844 8.668 30.6264 9.016 30.3984 9.4C30.1704 9.784 29.9904 10.162 29.8584 10.534ZM0.261937 30.584C0.309937 30.068 0.477937 29.69 0.765938 29.45C1.05394 29.222 1.42594 29.072 1.88194 29C2.33794 28.928 2.82994 28.892 3.35794 28.892C3.60994 28.34 3.85594 27.668 4.09594 26.876C4.33594 26.072 4.56394 25.214 4.77994 24.302C4.99594 23.39 5.19994 22.49 5.39194 21.602C5.59594 20.702 5.78194 19.88 5.94994 19.136C6.12994 18.38 6.29794 17.774 6.45394 17.318C5.54194 17.33 4.76794 17.372 4.13194 17.444C3.50794 17.516 2.85994 17.618 2.18794 17.75C2.31994 17.15 2.69794 16.718 3.32194 16.454C3.94594 16.19 4.89994 16.058 6.18394 16.058C6.81994 16.058 7.47994 16.082 8.16394 16.13C8.84794 16.178 9.47794 16.232 10.0539 16.292C10.6299 16.352 11.0799 16.406 11.4039 16.454C10.9959 16.838 10.6119 17.078 10.2519 17.174C9.89194 17.258 9.57994 17.3 9.31594 17.3C8.91994 17.3 8.56594 17.3 8.25394 17.3C7.95394 17.3 7.65994 17.306 7.37194 17.318C7.28794 17.726 7.19194 18.224 7.08394 18.812C6.98794 19.4 6.87394 20.03 6.74194 20.702C6.62194 21.374 6.50194 22.046 6.38194 22.718C6.26194 23.39 6.14194 24.02 6.02194 24.608C5.90194 25.184 5.79394 25.664 5.69794 26.048C5.54194 26.672 5.35594 27.242 5.13994 27.758C4.92394 28.274 4.67794 28.664 4.40194 28.928C5.03794 28.976 5.67994 29.036 6.32794 29.108C6.97594 29.18 7.68994 29.228 8.46994 29.252C7.98994 29.696 7.53394 29.972 7.10194 30.08C6.66994 30.2 6.31594 30.26 6.03994 30.26C5.23594 30.26 4.56394 30.26 4.02394 30.26C3.49594 30.272 3.03394 30.284 2.63794 30.296C2.24194 30.32 1.85794 30.356 1.48594 30.404C1.12594 30.452 0.717938 30.512 0.261937 30.584ZM15.4058 29.36C14.9378 29.36 14.5778 29.24 14.3258 29C14.0858 28.772 13.9658 28.478 13.9658 28.118C13.9658 27.878 14.0078 27.626 14.0918 27.362C14.1758 27.086 14.2598 26.81 14.3438 26.534C14.4278 26.258 14.4698 25.994 14.4698 25.742C14.4698 25.478 14.4038 25.298 14.2718 25.202C14.1518 25.094 14.0078 25.04 13.8398 25.04C13.4798 25.04 13.1078 25.19 12.7238 25.49C12.3518 25.778 11.9858 26.144 11.6258 26.588C11.2778 27.032 10.9478 27.494 10.6358 27.974C10.3238 28.454 10.0538 28.886 9.82584 29.27C9.59784 29.27 9.38184 29.228 9.17784 29.144C8.97384 29.072 8.79984 28.94 8.65584 28.748C8.66784 28.688 8.73984 28.508 8.87184 28.208C8.99184 27.896 9.12984 27.53 9.28584 27.11C9.44184 26.678 9.57984 26.228 9.69984 25.76C9.81984 25.292 9.87984 24.866 9.87984 24.482C9.96384 24.386 10.0898 24.29 10.2578 24.194C10.4378 24.098 10.6238 24.05 10.8158 24.05C11.2358 24.05 11.4458 24.23 11.4458 24.59C11.4458 24.914 11.3438 25.448 11.1398 26.192C11.4518 25.772 11.7938 25.376 12.1658 25.004C12.5378 24.632 12.9218 24.332 13.3178 24.104C13.7258 23.864 14.1338 23.744 14.5418 23.744C15.0578 23.744 15.4358 23.918 15.6758 24.266C15.9278 24.614 16.0538 24.998 16.0538 25.418C16.0538 25.778 15.9938 26.114 15.8738 26.426C15.7538 26.738 15.6338 27.032 15.5138 27.308C15.4058 27.584 15.3518 27.854 15.3518 28.118C15.3518 28.31 15.3938 28.448 15.4778 28.532C15.5738 28.604 15.6758 28.64 15.7838 28.64C16.0718 28.64 16.3718 28.502 16.6838 28.226C16.9958 27.95 17.2898 27.602 17.5658 27.182C17.8538 26.75 18.1058 26.318 18.3218 25.886L18.6278 26.138C18.3758 26.726 18.0878 27.266 17.7638 27.758C17.4518 28.238 17.0978 28.628 16.7018 28.928C16.3178 29.216 15.8858 29.36 15.4058 29.36ZM16.8397 34.04C16.6957 34.04 16.5457 33.986 16.3897 33.878C16.2217 33.77 16.1317 33.674 16.1197 33.59C16.4197 32.714 16.6777 31.952 16.8937 31.304C17.0977 30.668 17.2717 30.062 17.4157 29.486C17.5597 28.922 17.6917 28.334 17.8117 27.722C17.9197 27.098 18.0277 26.39 18.1357 25.598C18.2557 24.794 18.3877 23.828 18.5317 22.7C18.5557 22.556 18.5857 22.454 18.6217 22.394C18.6577 22.322 18.7717 22.286 18.9637 22.286C19.3357 22.286 19.6057 22.388 19.7737 22.592C19.9417 22.784 20.0257 23 20.0257 23.24C20.0257 23.528 19.9417 24.092 19.7737 24.932C20.0017 24.584 20.2597 24.254 20.5477 23.942C20.8477 23.63 21.1777 23.378 21.5377 23.186C21.8977 22.982 22.2877 22.88 22.7077 22.88C23.2957 22.88 23.7817 23.078 24.1657 23.474C24.5497 23.87 24.7417 24.392 24.7417 25.04C24.7417 25.508 24.6337 26.006 24.4177 26.534C24.2137 27.05 23.9197 27.542 23.5357 28.01C23.1517 28.466 22.6897 28.838 22.1497 29.126C21.6097 29.426 21.0157 29.576 20.3677 29.576C19.9837 29.576 19.6777 29.528 19.4497 29.432C19.2217 29.336 19.1077 29.228 19.1077 29.108C19.1077 29.024 19.1497 28.976 19.2337 28.964C19.3297 28.94 19.4317 28.928 19.5397 28.928C20.1037 28.916 20.6137 28.796 21.0697 28.568C21.5377 28.34 21.9397 28.046 22.2757 27.686C22.6117 27.314 22.8697 26.918 23.0497 26.498C23.2297 26.078 23.3197 25.664 23.3197 25.256C23.3197 24.896 23.2357 24.584 23.0677 24.32C22.9117 24.056 22.6597 23.924 22.3117 23.924C22.0117 23.924 21.7057 24.02 21.3937 24.212C21.0937 24.404 20.8117 24.65 20.5477 24.95C20.2837 25.238 20.0497 25.544 19.8457 25.868C19.6417 26.18 19.4857 26.456 19.3777 26.696C19.1497 27.488 18.9397 28.274 18.7477 29.054C18.5677 29.846 18.3937 30.578 18.2257 31.25C18.0577 31.922 17.8897 32.492 17.7217 32.96C17.5417 33.428 17.3497 33.746 17.1457 33.914C17.0497 33.998 16.9477 34.04 16.8397 34.04ZM26.6512 29.54C26.2432 29.54 25.9072 29.354 25.6432 28.982C25.3912 28.598 25.2652 28.16 25.2652 27.668C25.2652 27.332 25.3192 26.936 25.4272 26.48C25.5352 26.024 25.6732 25.58 25.8412 25.148C26.0212 24.716 26.2012 24.356 26.3812 24.068C26.5732 23.78 26.7472 23.636 26.9032 23.636C26.9872 23.636 27.1132 23.684 27.2812 23.78C27.4612 23.864 27.6172 23.972 27.7492 24.104C27.6172 24.296 27.4552 24.59 27.2632 24.986C27.0832 25.382 26.9212 25.808 26.7772 26.264C26.6332 26.72 26.5612 27.134 26.5612 27.506C26.5612 27.554 26.5672 27.668 26.5792 27.848C26.6032 28.028 26.6512 28.196 26.7232 28.352C26.7952 28.508 26.9212 28.586 27.1012 28.586C27.3052 28.586 27.5212 28.478 27.7492 28.262C27.9892 28.034 28.2292 27.746 28.4692 27.398C28.7212 27.038 28.9612 26.654 29.1892 26.246C29.4292 25.838 29.6392 25.442 29.8192 25.058C30.0112 24.674 30.1672 24.35 30.2872 24.086C30.3952 24.098 30.5332 24.128 30.7012 24.176C30.8812 24.224 31.0372 24.29 31.1692 24.374C31.3012 24.446 31.3672 24.554 31.3672 24.698C31.3672 24.734 31.3072 24.884 31.1872 25.148C31.0792 25.4 30.9472 25.706 30.7912 26.066C30.6472 26.426 30.5152 26.798 30.3952 27.182C30.2872 27.554 30.2332 27.884 30.2332 28.172C30.2332 28.34 30.2632 28.49 30.3232 28.622C30.3952 28.742 30.5272 28.802 30.7192 28.802C30.9712 28.802 31.2712 28.688 31.6192 28.46C31.9672 28.232 32.3272 27.902 32.6992 27.47C33.0712 27.038 33.4012 26.522 33.6892 25.922L33.9592 26.138C33.6952 26.786 33.3532 27.368 32.9332 27.884C32.5132 28.4 32.0632 28.802 31.5832 29.09C31.1032 29.39 30.6352 29.54 30.1792 29.54C29.8312 29.54 29.5672 29.456 29.3872 29.288C29.2192 29.132 29.1052 28.928 29.0452 28.676C28.9852 28.412 28.9492 28.148 28.9372 27.884V27.524C28.7332 27.848 28.5112 28.166 28.2712 28.478C28.0312 28.778 27.7732 29.03 27.4972 29.234C27.2332 29.438 26.9512 29.54 26.6512 29.54ZM34.8665 29.828C34.3385 29.828 33.9125 29.672 33.5885 29.36C33.2645 29.048 33.1025 28.574 33.1025 27.938C33.1025 27.446 33.1925 26.834 33.3725 26.102C33.5645 25.37 33.8045 24.614 34.0925 23.834C34.0085 23.81 33.9065 23.792 33.7865 23.78C33.6785 23.756 33.5705 23.72 33.4625 23.672V23.114C33.6545 23.138 33.8105 23.156 33.9305 23.168C34.0625 23.18 34.1945 23.192 34.3265 23.204C34.5785 22.568 34.8485 21.956 35.1365 21.368C35.4365 20.768 35.7305 20.234 36.0185 19.766C36.3185 19.298 36.6005 18.932 36.8645 18.668C37.1285 18.392 37.3625 18.254 37.5665 18.254C37.6865 18.254 37.8005 18.302 37.9085 18.398C38.0165 18.482 38.0705 18.608 38.0705 18.776C38.0705 19.016 37.9445 19.358 37.6925 19.802C37.4525 20.246 37.1525 20.768 36.7925 21.368C36.4325 21.956 36.0845 22.586 35.7485 23.258H36.3065C36.8345 23.258 37.3085 23.252 37.7285 23.24C38.1605 23.216 38.5985 23.18 39.0425 23.132V23.726C38.3825 23.786 37.7765 23.834 37.2245 23.87C36.6725 23.906 36.1445 23.93 35.6405 23.942H35.4245C35.1725 24.53 34.9505 25.136 34.7585 25.76C34.5785 26.372 34.4885 26.972 34.4885 27.56C34.4885 28.052 34.5665 28.4 34.7225 28.604C34.8785 28.808 35.1245 28.91 35.4605 28.91C36.0605 28.91 36.6725 28.64 37.2965 28.1C37.9325 27.548 38.4845 26.804 38.9525 25.868L39.2045 26.048C38.8925 26.756 38.5025 27.398 38.0345 27.974C37.5785 28.55 37.0805 29 36.5405 29.324C36.0005 29.66 35.4425 29.828 34.8665 29.828Z" fill="#FF736A"/>
</svg>
