<svg width="141" height="37" viewBox="0 0 141 37" fill="none" xmlns="http://www.w3.org/2000/svg">
<path d="M18.5816 29.132C17.6936 29.132 16.6976 28.952 15.5936 28.592C14.4896 28.232 13.3496 27.8 12.1736 27.296C11.0216 26.792 9.89361 26.312 8.78961 25.856C8.18961 26.504 7.54161 27.008 6.84561 27.368C6.14961 27.728 5.40561 27.908 4.61361 27.908C3.77361 27.908 3.05361 27.716 2.45361 27.332C1.82961 26.972 1.36161 26.528 1.04961 26C0.713609 25.472 0.545609 24.992 0.545609 24.56C0.545609 24.08 0.761609 23.66 1.19361 23.3C1.62561 22.94 2.39361 22.76 3.49761 22.76C4.14561 22.76 4.85361 22.832 5.62161 22.976C6.41361 23.096 7.21761 23.264 8.03361 23.48C8.58561 22.52 9.08961 21.392 9.54561 20.096C10.0256 18.8 10.4936 17.444 10.9496 16.028C11.4056 14.588 11.8616 13.184 12.3176 11.816C11.1176 11.408 10.1936 10.844 9.54561 10.124C8.89761 9.38 8.57361 8.636 8.57361 7.892C8.57361 7.412 8.69361 6.944 8.93361 6.488C9.17361 6.008 9.52161 5.612 9.97761 5.3C10.4336 4.964 10.9736 4.796 11.5976 4.796C11.2856 5.18 11.0816 5.612 10.9856 6.092C10.9136 6.572 10.8776 6.956 10.8776 7.244C10.8776 8.036 11.0576 8.708 11.4176 9.26C11.7776 9.812 12.2216 10.244 12.7496 10.556C13.2056 9.188 13.6856 7.88 14.1896 6.632C14.7176 5.36 15.2936 4.244 15.9176 3.284C16.5656 2.3 17.2736 1.52 18.0416 0.943999C18.8336 0.367999 19.7216 0.079999 20.7056 0.079999C21.2576 0.079999 21.8336 0.199999 22.4336 0.439999C23.0576 0.655999 23.5856 1.04 24.0176 1.592C24.4736 2.144 24.7016 2.936 24.7016 3.968C24.7016 4.784 24.5216 5.66 24.1616 6.596C23.8256 7.532 23.2856 8.432 22.5416 9.296C21.7976 10.136 20.8376 10.844 19.6616 11.42C18.5096 11.972 17.1056 12.272 15.4496 12.32H15.1256C14.4536 14.408 13.7096 16.508 12.8936 18.62C12.0776 20.732 11.1776 22.544 10.1936 24.056C11.1296 24.32 12.1616 24.62 13.2896 24.956C14.4416 25.292 15.5816 25.58 16.7096 25.82C17.8616 26.036 18.8696 26.144 19.7336 26.144C20.3096 26.144 20.8376 26.084 21.3176 25.964C21.8216 25.82 22.3496 25.616 22.9016 25.352C22.4216 26.696 21.8216 27.656 21.1016 28.232C20.4056 28.832 19.5656 29.132 18.5816 29.132ZM15.5216 11.132C16.5776 11.06 17.5136 10.724 18.3296 10.124C19.1456 9.524 19.8416 8.804 20.4176 7.964C20.9936 7.124 21.4256 6.272 21.7136 5.408C22.0256 4.52 22.1816 3.752 22.1816 3.104C22.1816 2.48 22.0616 2.06 21.8216 1.844C21.5816 1.604 21.3056 1.484 20.9936 1.484C20.2976 1.484 19.6376 1.928 19.0136 2.816C18.3896 3.704 17.7896 4.88 17.2136 6.344C16.6616 7.784 16.0976 9.38 15.5216 11.132ZM4.25361 26.576C4.87761 26.576 5.38161 26.432 5.76561 26.144C6.14961 25.88 6.53361 25.544 6.91761 25.136C6.17361 24.872 5.47761 24.656 4.82961 24.488C4.18161 24.296 3.61761 24.2 3.13761 24.2C2.68161 24.2 2.35761 24.284 2.16561 24.452C1.94961 24.62 1.84161 24.824 1.84161 25.064C1.84161 25.448 2.08161 25.796 2.56161 26.108C3.04161 26.42 3.60561 26.576 4.25361 26.576ZM27.2092 27.152C26.1052 27.152 25.2892 26.816 24.7612 26.144C24.2332 25.496 23.9692 24.692 23.9692 23.732C23.9692 22.484 24.1852 21.32 24.6172 20.24C25.0732 19.16 25.6372 18.188 26.3092 17.324C27.0052 16.436 27.7492 15.68 28.5412 15.056C29.3332 14.432 30.0772 13.952 30.7732 13.616C31.4932 13.28 32.0812 13.112 32.5372 13.112C32.6572 13.112 32.8252 13.136 33.0412 13.184C33.2572 13.232 33.4132 13.352 33.5092 13.544C33.5812 13.496 33.6532 13.46 33.7252 13.436C33.8212 13.412 33.9172 13.4 34.0132 13.4C34.6852 13.4 35.1172 13.592 35.3092 13.976C35.5252 14.36 35.6332 14.78 35.6332 15.236C35.6332 15.644 35.5132 16.112 35.2732 16.64C35.0572 17.168 34.8292 17.756 34.5892 18.404C34.3732 19.028 34.2652 19.748 34.2652 20.564C34.2652 20.996 34.3852 21.332 34.6252 21.572C34.8892 21.788 35.1892 21.896 35.5252 21.896C36.4612 21.896 37.2292 21.692 37.8292 21.284C38.4292 20.852 38.9212 20.288 39.3052 19.592C39.6892 18.896 40.0132 18.14 40.2772 17.324C40.5412 16.484 40.7932 15.656 41.0332 14.84C40.8172 14.576 40.7092 14.276 40.7092 13.94C40.7092 13.412 40.8172 12.956 41.0332 12.572C41.2492 12.164 41.4892 11.852 41.7532 11.636C42.0412 11.396 42.2692 11.276 42.4372 11.276C42.8212 11.276 43.0492 11.42 43.1212 11.708C43.1932 11.996 43.2292 12.224 43.2292 12.392C43.2292 12.512 43.1572 12.728 43.0132 13.04C42.8932 13.352 42.8332 13.568 42.8332 13.688C42.8332 13.928 43.0252 14.18 43.4092 14.444C43.8172 14.684 44.2732 14.972 44.7772 15.308C45.2812 15.644 45.7252 16.076 46.1092 16.604C46.5172 17.108 46.7212 17.744 46.7212 18.512C46.7212 19.232 46.5772 19.952 46.2892 20.672C46.0012 21.392 45.7132 22.064 45.4252 22.688C45.1372 23.312 44.9932 23.852 44.9932 24.308C44.9932 24.668 45.0772 24.908 45.2452 25.028C45.4372 25.124 45.6532 25.172 45.8932 25.172C46.4452 25.172 47.0212 25.004 47.6212 24.668C48.2452 24.308 48.8452 23.852 49.4212 23.3C49.9972 22.748 50.5132 22.172 50.9692 21.572C51.4252 20.948 51.7612 20.384 51.9772 19.88L52.6972 20.384C52.2172 21.416 51.5812 22.436 50.7892 23.444C49.9972 24.452 49.0972 25.292 48.0892 25.964C47.1052 26.636 46.0732 26.972 44.9932 26.972C44.1052 26.972 43.3732 26.732 42.7972 26.252C42.2452 25.772 41.9692 25.16 41.9692 24.416C41.9692 23.72 42.1252 22.988 42.4372 22.22C42.7492 21.452 43.0612 20.708 43.3732 19.988C43.6852 19.268 43.8412 18.62 43.8412 18.044C43.8412 17.42 43.6372 16.916 43.2292 16.532C42.8212 16.124 42.3892 15.8 41.9332 15.56C41.6452 16.424 41.3212 17.312 40.9612 18.224C40.6252 19.136 40.2052 19.976 39.7012 20.744C39.1972 21.488 38.5612 22.1 37.7932 22.58C37.0252 23.036 36.0652 23.264 34.9132 23.264C34.6012 23.264 34.2412 23.216 33.8332 23.12C33.4492 23.024 33.1252 22.928 32.8612 22.832C32.2132 24.104 31.3612 25.148 30.3052 25.964C29.2732 26.756 28.2412 27.152 27.2092 27.152ZM27.8932 25.352C28.2052 25.352 28.5892 25.196 29.0452 24.884C29.5252 24.572 29.9932 24.164 30.4492 23.66C30.9292 23.132 31.3012 22.58 31.5652 22.004C31.0612 21.332 30.8092 20.324 30.8092 18.98C30.8092 18.692 30.8452 18.308 30.9172 17.828C31.0132 17.348 31.1332 16.856 31.2772 16.352C31.4452 15.824 31.6372 15.38 31.8532 15.02C31.0372 15.788 30.2332 16.688 29.4412 17.72C28.6732 18.728 28.0372 19.748 27.5332 20.78C27.0292 21.812 26.7772 22.76 26.7772 23.624C26.7772 24.272 26.8732 24.728 27.0652 24.992C27.2812 25.232 27.5572 25.352 27.8932 25.352ZM55.4006 27.584C53.8646 27.584 52.6766 27.164 51.8366 26.324C51.0206 25.508 50.6126 24.476 50.6126 23.228C50.6126 22.172 50.8766 21.056 51.4046 19.88C51.9566 18.68 52.6886 17.564 53.6006 16.532C54.5126 15.476 55.5206 14.624 56.6246 13.976C57.7286 13.328 58.8326 13.004 59.9366 13.004C60.5606 13.004 61.1486 13.172 61.7006 13.508C62.2766 13.82 62.5646 14.456 62.5646 15.416C62.5646 16.328 62.3006 17.18 61.7726 17.972C61.2446 18.764 60.5366 19.472 59.6486 20.096C58.7606 20.72 57.7766 21.236 56.6966 21.644C55.6406 22.028 54.5726 22.28 53.4926 22.4C53.4686 22.496 53.4446 22.604 53.4206 22.724C53.4206 22.82 53.4206 22.988 53.4206 23.228C53.4206 23.348 53.4326 23.564 53.4566 23.876C53.5046 24.164 53.6126 24.476 53.7806 24.812C53.9486 25.148 54.2246 25.436 54.6086 25.676C54.9926 25.916 55.5206 26.036 56.1926 26.036C57.2006 26.036 58.2086 25.76 59.2166 25.208C60.2486 24.632 61.2086 23.876 62.0966 22.94C63.0086 22.004 63.7646 20.96 64.3646 19.808L65.0846 20.384C64.4366 21.824 63.5966 23.084 62.5646 24.164C61.5566 25.244 60.4286 26.084 59.1806 26.684C57.9566 27.284 56.6966 27.584 55.4006 27.584ZM53.8886 21.068C54.5126 20.996 55.2086 20.78 55.9766 20.42C56.7446 20.06 57.4766 19.604 58.1726 19.052C58.8926 18.5 59.4806 17.9 59.9366 17.252C60.3926 16.58 60.6206 15.908 60.6206 15.236C60.6206 14.972 60.5726 14.792 60.4766 14.696C60.3806 14.6 60.2246 14.552 60.0086 14.552C59.4566 14.552 58.8806 14.756 58.2806 15.164C57.6806 15.548 57.0926 16.064 56.5166 16.712C55.9406 17.336 55.4246 18.032 54.9686 18.8C54.5126 19.568 54.1526 20.324 53.8886 21.068ZM62.8461 29.168C62.9421 28.136 63.2781 27.38 63.8541 26.9C64.4301 26.444 65.1741 26.144 66.0861 26C66.9981 25.856 67.9821 25.784 69.0381 25.784C69.5421 24.68 70.0341 23.336 70.5141 21.752C70.9941 20.144 71.4501 18.428 71.8821 16.604C72.3141 14.78 72.7221 12.98 73.1061 11.204C73.5141 9.404 73.8861 7.76 74.2221 6.272C74.5821 4.76 74.9181 3.548 75.2301 2.636C73.4061 2.66 71.8581 2.744 70.5861 2.888C69.3381 3.032 68.0421 3.236 66.6981 3.5C66.9621 2.3 67.7181 1.436 68.9661 0.907999C70.2141 0.379999 72.1221 0.115999 74.6901 0.115999C75.9621 0.115999 77.2821 0.163999 78.6501 0.259999C80.0181 0.355999 81.2781 0.463999 82.4301 0.583999C83.5821 0.703999 84.4821 0.811999 85.1301 0.907999C84.3141 1.676 83.5461 2.156 82.8261 2.348C82.1061 2.516 81.4821 2.6 80.9541 2.6C80.1621 2.6 79.4541 2.6 78.8301 2.6C78.2301 2.6 77.6421 2.612 77.0661 2.636C76.8981 3.452 76.7061 4.448 76.4901 5.624C76.2981 6.8 76.0701 8.06 75.8061 9.404C75.5661 10.748 75.3261 12.092 75.0861 13.436C74.8461 14.78 74.6061 16.04 74.3661 17.216C74.1261 18.368 73.9101 19.328 73.7181 20.096C73.4061 21.344 73.0341 22.484 72.6021 23.516C72.1701 24.548 71.6781 25.328 71.1261 25.856C72.3981 25.952 73.6821 26.072 74.9781 26.216C76.2741 26.36 77.7021 26.456 79.2621 26.504C78.3021 27.392 77.3901 27.944 76.5261 28.16C75.6621 28.4 74.9541 28.52 74.4021 28.52C72.7941 28.52 71.4501 28.52 70.3701 28.52C69.3141 28.544 68.3901 28.568 67.5981 28.592C66.8061 28.64 66.0381 28.712 65.2941 28.808C64.5741 28.904 63.7581 29.024 62.8461 29.168ZM93.134 26.72C92.198 26.72 91.478 26.48 90.974 26C90.494 25.544 90.254 24.956 90.254 24.236C90.254 23.756 90.338 23.252 90.506 22.724C90.674 22.172 90.842 21.62 91.01 21.068C91.178 20.516 91.262 19.988 91.262 19.484C91.262 18.956 91.13 18.596 90.866 18.404C90.626 18.188 90.338 18.08 90.002 18.08C89.282 18.08 88.538 18.38 87.77 18.98C87.026 19.556 86.294 20.288 85.574 21.176C84.878 22.064 84.218 22.988 83.594 23.948C82.97 24.908 82.43 25.772 81.974 26.54C81.518 26.54 81.086 26.456 80.678 26.288C80.27 26.144 79.922 25.88 79.634 25.496C79.658 25.376 79.802 25.016 80.066 24.416C80.306 23.792 80.582 23.06 80.894 22.22C81.206 21.356 81.482 20.456 81.722 19.52C81.962 18.584 82.082 17.732 82.082 16.964C82.25 16.772 82.502 16.58 82.838 16.388C83.198 16.196 83.57 16.1 83.954 16.1C84.794 16.1 85.214 16.46 85.214 17.18C85.214 17.828 85.01 18.896 84.602 20.384C85.226 19.544 85.91 18.752 86.654 18.008C87.398 17.264 88.166 16.664 88.958 16.208C89.774 15.728 90.59 15.488 91.406 15.488C92.438 15.488 93.194 15.836 93.674 16.532C94.178 17.228 94.43 17.996 94.43 18.836C94.43 19.556 94.31 20.228 94.07 20.852C93.83 21.476 93.59 22.064 93.35 22.616C93.134 23.168 93.026 23.708 93.026 24.236C93.026 24.62 93.11 24.896 93.278 25.064C93.47 25.208 93.674 25.28 93.89 25.28C94.466 25.28 95.066 25.004 95.69 24.452C96.314 23.9 96.902 23.204 97.454 22.364C98.03 21.5 98.534 20.636 98.966 19.772L99.578 20.276C99.074 21.452 98.498 22.532 97.85 23.516C97.226 24.476 96.518 25.256 95.726 25.856C94.958 26.432 94.094 26.72 93.134 26.72ZM96.0016 36.08C95.7136 36.08 95.4136 35.972 95.1016 35.756C94.7656 35.54 94.5856 35.348 94.5616 35.18C95.1616 33.428 95.6776 31.904 96.1096 30.608C96.5176 29.336 96.8656 28.124 97.1536 26.972C97.4416 25.844 97.7056 24.668 97.9456 23.444C98.1616 22.196 98.3776 20.78 98.5936 19.196C98.8336 17.588 99.0976 15.656 99.3856 13.4C99.4336 13.112 99.4936 12.908 99.5656 12.788C99.6376 12.644 99.8656 12.572 100.25 12.572C100.994 12.572 101.534 12.776 101.87 13.184C102.206 13.568 102.374 14 102.374 14.48C102.374 15.056 102.206 16.184 101.87 17.864C102.326 17.168 102.842 16.508 103.418 15.884C104.018 15.26 104.678 14.756 105.398 14.372C106.118 13.964 106.898 13.76 107.738 13.76C108.914 13.76 109.886 14.156 110.654 14.948C111.422 15.74 111.806 16.784 111.806 18.08C111.806 19.016 111.59 20.012 111.158 21.068C110.75 22.1 110.162 23.084 109.394 24.02C108.626 24.932 107.702 25.676 106.622 26.252C105.542 26.852 104.354 27.152 103.058 27.152C102.29 27.152 101.678 27.056 101.222 26.864C100.766 26.672 100.538 26.456 100.538 26.216C100.538 26.048 100.622 25.952 100.79 25.928C100.982 25.88 101.186 25.856 101.402 25.856C102.53 25.832 103.55 25.592 104.462 25.136C105.398 24.68 106.202 24.092 106.874 23.372C107.546 22.628 108.062 21.836 108.422 20.996C108.782 20.156 108.962 19.328 108.962 18.512C108.962 17.792 108.794 17.168 108.458 16.64C108.146 16.112 107.642 15.848 106.946 15.848C106.346 15.848 105.734 16.04 105.11 16.424C104.51 16.808 103.946 17.3 103.418 17.9C102.89 18.476 102.422 19.088 102.014 19.736C101.606 20.36 101.294 20.912 101.078 21.392C100.622 22.976 100.202 24.548 99.8176 26.108C99.4576 27.692 99.1096 29.156 98.7736 30.5C98.4376 31.844 98.1016 32.984 97.7656 33.92C97.4056 34.856 97.0216 35.492 96.6136 35.828C96.4216 35.996 96.2176 36.08 96.0016 36.08ZM115.625 27.08C114.809 27.08 114.137 26.708 113.609 25.964C113.105 25.196 112.853 24.32 112.853 23.336C112.853 22.664 112.961 21.872 113.177 20.96C113.393 20.048 113.669 19.16 114.005 18.296C114.365 17.432 114.725 16.712 115.085 16.136C115.469 15.56 115.817 15.272 116.129 15.272C116.297 15.272 116.549 15.368 116.885 15.56C117.245 15.728 117.557 15.944 117.821 16.208C117.557 16.592 117.233 17.18 116.849 17.972C116.489 18.764 116.165 19.616 115.877 20.528C115.589 21.44 115.445 22.268 115.445 23.012C115.445 23.108 115.457 23.336 115.481 23.696C115.529 24.056 115.625 24.392 115.769 24.704C115.913 25.016 116.165 25.172 116.525 25.172C116.933 25.172 117.365 24.956 117.821 24.524C118.301 24.068 118.781 23.492 119.261 22.796C119.765 22.076 120.245 21.308 120.701 20.492C121.181 19.676 121.601 18.884 121.961 18.116C122.345 17.348 122.657 16.7 122.897 16.172C123.113 16.196 123.389 16.256 123.725 16.352C124.085 16.448 124.397 16.58 124.661 16.748C124.925 16.892 125.057 17.108 125.057 17.396C125.057 17.468 124.937 17.768 124.697 18.296C124.481 18.8 124.217 19.412 123.905 20.132C123.617 20.852 123.353 21.596 123.113 22.364C122.897 23.108 122.789 23.768 122.789 24.344C122.789 24.68 122.849 24.98 122.969 25.244C123.113 25.484 123.377 25.604 123.761 25.604C124.265 25.604 124.865 25.376 125.561 24.92C126.257 24.464 126.977 23.804 127.721 22.94C128.465 22.076 129.125 21.044 129.701 19.844L130.241 20.276C129.713 21.572 129.029 22.736 128.189 23.768C127.349 24.8 126.449 25.604 125.489 26.18C124.529 26.78 123.593 27.08 122.681 27.08C121.985 27.08 121.457 26.912 121.097 26.576C120.761 26.264 120.533 25.856 120.413 25.352C120.293 24.824 120.221 24.296 120.197 23.768V23.048C119.789 23.696 119.345 24.332 118.865 24.956C118.385 25.556 117.869 26.06 117.317 26.468C116.789 26.876 116.225 27.08 115.625 27.08ZM132.055 27.656C130.999 27.656 130.147 27.344 129.499 26.72C128.851 26.096 128.527 25.148 128.527 23.876C128.527 22.892 128.707 21.668 129.067 20.204C129.451 18.74 129.931 17.228 130.507 15.668C130.339 15.62 130.135 15.584 129.895 15.56C129.679 15.512 129.463 15.44 129.247 15.344V14.228C129.631 14.276 129.943 14.312 130.183 14.336C130.447 14.36 130.711 14.384 130.975 14.408C131.479 13.136 132.019 11.912 132.595 10.736C133.195 9.536 133.783 8.468 134.359 7.532C134.959 6.596 135.523 5.864 136.051 5.336C136.579 4.784 137.047 4.508 137.455 4.508C137.695 4.508 137.923 4.604 138.139 4.796C138.355 4.964 138.463 5.216 138.463 5.552C138.463 6.032 138.211 6.716 137.707 7.604C137.227 8.492 136.627 9.536 135.907 10.736C135.187 11.912 134.491 13.172 133.819 14.516H134.935C135.991 14.516 136.939 14.504 137.779 14.48C138.643 14.432 139.519 14.36 140.407 14.264V15.452C139.087 15.572 137.875 15.668 136.771 15.74C135.667 15.812 134.611 15.86 133.603 15.884H133.171C132.667 17.06 132.223 18.272 131.839 19.52C131.479 20.744 131.299 21.944 131.299 23.12C131.299 24.104 131.455 24.8 131.767 25.208C132.079 25.616 132.571 25.82 133.243 25.82C134.443 25.82 135.667 25.28 136.915 24.2C138.187 23.096 139.291 21.608 140.227 19.736L140.731 20.096C140.107 21.512 139.327 22.796 138.391 23.948C137.479 25.1 136.483 26 135.403 26.648C134.323 27.32 133.207 27.656 132.055 27.656Z" fill="#FF736A"/>
</svg>
